<?xml version="1.0" encoding="UTF-8"?>
<svg width="64" height="64" viewBox="0 0 64 64" xmlns="http://www.w3.org/2000/svg">
  <!-- Background circle -->
  <circle cx="32" cy="32" r="30" fill="#2E7D32" stroke="#1B5E20" stroke-width="2"/>
  
  <!-- Mountain/geological layers -->
  <path d="M8 45 L20 25 L32 35 L44 15 L56 40 L56 52 L8 52 Z" fill="#8D6E63" opacity="0.8"/>
  <path d="M8 50 L16 35 L28 42 L40 25 L52 45 L56 52 L8 52 Z" fill="#A1887F" opacity="0.7"/>
  
  <!-- Mineral deposits (gold dots) -->
  <circle cx="18" cy="38" r="3" fill="#FFD700" stroke="#FFA000" stroke-width="1"/>
  <circle cx="35" cy="28" r="2.5" fill="#FFD700" stroke="#FFA000" stroke-width="1"/>
  <circle cx="48" cy="35" r="2" fill="#FFD700" stroke="#FFA000" stroke-width="1"/>
  
  <!-- Crystals/gems -->
  <polygon points="25,20 28,14 31,20 28,26" fill="#E1BEE7" stroke="#9C27B0" stroke-width="1"/>
  <polygon points="42,45 45,39 48,45 45,51" fill="#B3E5FC" stroke="#03A9F4" stroke-width="1"/>
  
  <!-- Geological tools/instruments -->
  <g transform="translate(10,10)">
    <!-- Compass/surveying tool -->
    <circle cx="0" cy="0" r="6" fill="#37474F" stroke="#263238" stroke-width="1"/>
    <circle cx="0" cy="0" r="2" fill="#FF5722"/>
    <line x1="-3" y1="0" x2="3" y2="0" stroke="#FFFFFF" stroke-width="1"/>
    <line x1="0" y1="-3" x2="0" y2="3" stroke="#FFFFFF" stroke-width="1"/>
  </g>
  
  <!-- Spectral analysis waves -->
  <g opacity="0.6">
    <path d="M12 58 Q20 54 28 58 T44 58" stroke="#4CAF50" stroke-width="2" fill="none"/>
    <path d="M16 60 Q24 56 32 60 T48 60" stroke="#8BC34A" stroke-width="2" fill="none"/>
  </g>
  
  <!-- Data visualization elements -->
  <g transform="translate(45,8)">
    <!-- Small chart/graph -->
    <rect x="0" y="0" width="12" height="8" fill="#FFFFFF" opacity="0.9" stroke="#666" stroke-width="1"/>
    <polyline points="1,6 3,4 5,5 7,2 9,3 11,1" stroke="#2196F3" stroke-width="1.5" fill="none"/>
  </g>
</svg>
